<mxfile host="app.diagrams.net" modified="2023-05-31T18:17:40.903Z" agent="Mozilla/5.0 (X11; Ubuntu; Linux x86_64; rv:109.0) Gecko/20100101 Firefox/113.0" etag="w8LbjuljBPvc-FEsmG2-" version="21.3.2" type="device">
  <diagram name="Page-1" id="dVBnm7pMNsHTWBnmNnAo">
    <mxGraphModel dx="1364" dy="765" grid="1" gridSize="10" guides="1" tooltips="1" connect="1" arrows="1" fold="1" page="1" pageScale="1" pageWidth="827" pageHeight="1169" background="#9C9C9C" math="0" shadow="0">
      <root>
        <mxCell id="0" />
        <mxCell id="1" parent="0" />
        <mxCell id="4YoetbbLr5SF6jc-DBML-61" value="" style="rounded=0;whiteSpace=wrap;html=1;" vertex="1" parent="1">
          <mxGeometry x="53.75" y="500" width="742.5" height="600" as="geometry" />
        </mxCell>
        <mxCell id="4YoetbbLr5SF6jc-DBML-3" value="AUTHORIZATION" style="rounded=1;whiteSpace=wrap;html=1;" vertex="1" parent="1">
          <mxGeometry x="365" y="530" width="120" height="60" as="geometry" />
        </mxCell>
        <mxCell id="4YoetbbLr5SF6jc-DBML-8" value="" style="shape=image;verticalLabelPosition=bottom;labelBackgroundColor=default;verticalAlign=top;aspect=fixed;imageAspect=0;image=https://openmoji.org/data/color/svg/1F600.svg;" vertex="1" parent="1">
          <mxGeometry x="365" y="300" width="120" height="120" as="geometry" />
        </mxCell>
        <mxCell id="4YoetbbLr5SF6jc-DBML-13" value="" style="group" vertex="1" connectable="0" parent="1">
          <mxGeometry x="300" y="40" width="250" height="210" as="geometry" />
        </mxCell>
        <mxCell id="4YoetbbLr5SF6jc-DBML-12" value="" style="rounded=1;whiteSpace=wrap;html=1;" vertex="1" parent="4YoetbbLr5SF6jc-DBML-13">
          <mxGeometry width="250" height="210" as="geometry" />
        </mxCell>
        <mxCell id="4YoetbbLr5SF6jc-DBML-2" value="AUTHENTICATION" style="rounded=1;whiteSpace=wrap;html=1;" vertex="1" parent="4YoetbbLr5SF6jc-DBML-13">
          <mxGeometry x="65" y="20" width="120" height="60" as="geometry" />
        </mxCell>
        <mxCell id="4YoetbbLr5SF6jc-DBML-6" value="" style="shape=image;verticalLabelPosition=bottom;labelBackgroundColor=default;verticalAlign=top;aspect=fixed;imageAspect=0;image=https://openmoji.org/data/color/svg/1F978.svg;" vertex="1" parent="4YoetbbLr5SF6jc-DBML-13">
          <mxGeometry x="25" y="90" width="120" height="120" as="geometry" />
        </mxCell>
        <mxCell id="4YoetbbLr5SF6jc-DBML-7" value="" style="shape=image;verticalLabelPosition=bottom;labelBackgroundColor=default;verticalAlign=top;aspect=fixed;imageAspect=0;image=https://openmoji.org/data/color/svg/1F600.svg;" vertex="1" parent="4YoetbbLr5SF6jc-DBML-13">
          <mxGeometry x="105" y="90" width="120" height="120" as="geometry" />
        </mxCell>
        <mxCell id="4YoetbbLr5SF6jc-DBML-15" value="Page/Route Level" style="rounded=1;whiteSpace=wrap;html=1;" vertex="1" parent="1">
          <mxGeometry x="165" y="625" width="120" height="60" as="geometry" />
        </mxCell>
        <mxCell id="4YoetbbLr5SF6jc-DBML-16" value="Component Level" style="rounded=1;whiteSpace=wrap;html=1;" vertex="1" parent="1">
          <mxGeometry x="575" y="625" width="120" height="60" as="geometry" />
        </mxCell>
        <mxCell id="4YoetbbLr5SF6jc-DBML-17" value="/user/add" style="shape=note;whiteSpace=wrap;html=1;backgroundOutline=1;darkOpacity=0.05;" vertex="1" parent="1">
          <mxGeometry x="95" y="705" width="80" height="100" as="geometry" />
        </mxCell>
        <mxCell id="4YoetbbLr5SF6jc-DBML-18" value="/user/delete" style="shape=note;whiteSpace=wrap;html=1;backgroundOutline=1;darkOpacity=0.05;" vertex="1" parent="1">
          <mxGeometry x="95" y="825" width="80" height="100" as="geometry" />
        </mxCell>
        <mxCell id="4YoetbbLr5SF6jc-DBML-19" value="/user/view" style="shape=note;whiteSpace=wrap;html=1;backgroundOutline=1;darkOpacity=0.05;" vertex="1" parent="1">
          <mxGeometry x="95" y="945" width="80" height="100" as="geometry" />
        </mxCell>
        <mxCell id="4YoetbbLr5SF6jc-DBML-20" value="" style="shape=image;verticalLabelPosition=bottom;labelBackgroundColor=default;verticalAlign=top;aspect=fixed;imageAspect=0;image=https://openmoji.org/data/color/svg/1F44D.svg;imageBackground=#66FF66;" vertex="1" parent="1">
          <mxGeometry x="155" y="785" width="30" height="30" as="geometry" />
        </mxCell>
        <mxCell id="4YoetbbLr5SF6jc-DBML-23" value="" style="shape=image;verticalLabelPosition=bottom;labelBackgroundColor=default;verticalAlign=top;aspect=fixed;imageAspect=0;image=https://openmoji.org/data/color/svg/1F44E.svg;imageBackground=#FF3333;" vertex="1" parent="1">
          <mxGeometry x="155" y="905" width="30" height="30" as="geometry" />
        </mxCell>
        <mxCell id="4YoetbbLr5SF6jc-DBML-24" value="" style="shape=image;verticalLabelPosition=bottom;labelBackgroundColor=default;verticalAlign=top;aspect=fixed;imageAspect=0;image=https://openmoji.org/data/color/svg/1F44D.svg;imageBackground=#66FF66;" vertex="1" parent="1">
          <mxGeometry x="155" y="1025" width="30" height="30" as="geometry" />
        </mxCell>
        <mxCell id="4YoetbbLr5SF6jc-DBML-25" value="" style="shape=note;whiteSpace=wrap;html=1;backgroundOutline=1;darkOpacity=0.05;" vertex="1" parent="1">
          <mxGeometry x="495" y="705" width="285" height="380" as="geometry" />
        </mxCell>
        <mxCell id="4YoetbbLr5SF6jc-DBML-26" value="&lt;h1&gt;Heading&lt;/h1&gt;&lt;p&gt;Lorem ipsum dolor sit amet, consectetur adipisicing elit, sed do eiusmod tempor incididunt ut labore et dolore magna aliqua.&lt;/p&gt;" style="text;html=1;strokeColor=default;fillColor=none;spacing=5;spacingTop=-20;whiteSpace=wrap;overflow=hidden;rounded=0;" vertex="1" parent="1">
          <mxGeometry x="507.5" y="715" width="230" height="120" as="geometry" />
        </mxCell>
        <mxCell id="4YoetbbLr5SF6jc-DBML-27" value="Salary Table" style="shape=table;startSize=30;container=1;collapsible=0;childLayout=tableLayout;strokeColor=default;fontSize=16;" vertex="1" parent="1">
          <mxGeometry x="507.5" y="845" width="230" height="150" as="geometry" />
        </mxCell>
        <mxCell id="4YoetbbLr5SF6jc-DBML-28" value="" style="shape=tableRow;horizontal=0;startSize=0;swimlaneHead=0;swimlaneBody=0;strokeColor=inherit;top=0;left=0;bottom=0;right=0;collapsible=0;dropTarget=0;fillColor=none;points=[[0,0.5],[1,0.5]];portConstraint=eastwest;fontSize=16;" vertex="1" parent="4YoetbbLr5SF6jc-DBML-27">
          <mxGeometry y="30" width="230" height="40" as="geometry" />
        </mxCell>
        <mxCell id="4YoetbbLr5SF6jc-DBML-29" value="" style="shape=partialRectangle;html=1;whiteSpace=wrap;connectable=0;strokeColor=inherit;overflow=hidden;fillColor=none;top=0;left=0;bottom=0;right=0;pointerEvents=1;fontSize=16;" vertex="1" parent="4YoetbbLr5SF6jc-DBML-28">
          <mxGeometry width="77" height="40" as="geometry">
            <mxRectangle width="77" height="40" as="alternateBounds" />
          </mxGeometry>
        </mxCell>
        <mxCell id="4YoetbbLr5SF6jc-DBML-30" value="" style="shape=partialRectangle;html=1;whiteSpace=wrap;connectable=0;strokeColor=inherit;overflow=hidden;fillColor=none;top=0;left=0;bottom=0;right=0;pointerEvents=1;fontSize=16;" vertex="1" parent="4YoetbbLr5SF6jc-DBML-28">
          <mxGeometry x="77" width="76" height="40" as="geometry">
            <mxRectangle width="76" height="40" as="alternateBounds" />
          </mxGeometry>
        </mxCell>
        <mxCell id="4YoetbbLr5SF6jc-DBML-31" value="" style="shape=partialRectangle;html=1;whiteSpace=wrap;connectable=0;strokeColor=inherit;overflow=hidden;fillColor=none;top=0;left=0;bottom=0;right=0;pointerEvents=1;fontSize=16;" vertex="1" parent="4YoetbbLr5SF6jc-DBML-28">
          <mxGeometry x="153" width="77" height="40" as="geometry">
            <mxRectangle width="77" height="40" as="alternateBounds" />
          </mxGeometry>
        </mxCell>
        <mxCell id="4YoetbbLr5SF6jc-DBML-32" value="" style="shape=tableRow;horizontal=0;startSize=0;swimlaneHead=0;swimlaneBody=0;strokeColor=inherit;top=0;left=0;bottom=0;right=0;collapsible=0;dropTarget=0;fillColor=none;points=[[0,0.5],[1,0.5]];portConstraint=eastwest;fontSize=16;" vertex="1" parent="4YoetbbLr5SF6jc-DBML-27">
          <mxGeometry y="70" width="230" height="40" as="geometry" />
        </mxCell>
        <mxCell id="4YoetbbLr5SF6jc-DBML-33" value="" style="shape=partialRectangle;html=1;whiteSpace=wrap;connectable=0;strokeColor=inherit;overflow=hidden;fillColor=none;top=0;left=0;bottom=0;right=0;pointerEvents=1;fontSize=16;" vertex="1" parent="4YoetbbLr5SF6jc-DBML-32">
          <mxGeometry width="77" height="40" as="geometry">
            <mxRectangle width="77" height="40" as="alternateBounds" />
          </mxGeometry>
        </mxCell>
        <mxCell id="4YoetbbLr5SF6jc-DBML-34" value="" style="shape=partialRectangle;html=1;whiteSpace=wrap;connectable=0;strokeColor=inherit;overflow=hidden;fillColor=none;top=0;left=0;bottom=0;right=0;pointerEvents=1;fontSize=16;" vertex="1" parent="4YoetbbLr5SF6jc-DBML-32">
          <mxGeometry x="77" width="76" height="40" as="geometry">
            <mxRectangle width="76" height="40" as="alternateBounds" />
          </mxGeometry>
        </mxCell>
        <mxCell id="4YoetbbLr5SF6jc-DBML-35" value="" style="shape=partialRectangle;html=1;whiteSpace=wrap;connectable=0;strokeColor=inherit;overflow=hidden;fillColor=none;top=0;left=0;bottom=0;right=0;pointerEvents=1;fontSize=16;" vertex="1" parent="4YoetbbLr5SF6jc-DBML-32">
          <mxGeometry x="153" width="77" height="40" as="geometry">
            <mxRectangle width="77" height="40" as="alternateBounds" />
          </mxGeometry>
        </mxCell>
        <mxCell id="4YoetbbLr5SF6jc-DBML-36" value="" style="shape=tableRow;horizontal=0;startSize=0;swimlaneHead=0;swimlaneBody=0;strokeColor=inherit;top=0;left=0;bottom=0;right=0;collapsible=0;dropTarget=0;fillColor=none;points=[[0,0.5],[1,0.5]];portConstraint=eastwest;fontSize=16;" vertex="1" parent="4YoetbbLr5SF6jc-DBML-27">
          <mxGeometry y="110" width="230" height="40" as="geometry" />
        </mxCell>
        <mxCell id="4YoetbbLr5SF6jc-DBML-37" value="" style="shape=partialRectangle;html=1;whiteSpace=wrap;connectable=0;strokeColor=inherit;overflow=hidden;fillColor=none;top=0;left=0;bottom=0;right=0;pointerEvents=1;fontSize=16;" vertex="1" parent="4YoetbbLr5SF6jc-DBML-36">
          <mxGeometry width="77" height="40" as="geometry">
            <mxRectangle width="77" height="40" as="alternateBounds" />
          </mxGeometry>
        </mxCell>
        <mxCell id="4YoetbbLr5SF6jc-DBML-38" value="" style="shape=partialRectangle;html=1;whiteSpace=wrap;connectable=0;strokeColor=inherit;overflow=hidden;fillColor=none;top=0;left=0;bottom=0;right=0;pointerEvents=1;fontSize=16;" vertex="1" parent="4YoetbbLr5SF6jc-DBML-36">
          <mxGeometry x="77" width="76" height="40" as="geometry">
            <mxRectangle width="76" height="40" as="alternateBounds" />
          </mxGeometry>
        </mxCell>
        <mxCell id="4YoetbbLr5SF6jc-DBML-39" value="" style="shape=partialRectangle;html=1;whiteSpace=wrap;connectable=0;strokeColor=inherit;overflow=hidden;fillColor=none;top=0;left=0;bottom=0;right=0;pointerEvents=1;fontSize=16;" vertex="1" parent="4YoetbbLr5SF6jc-DBML-36">
          <mxGeometry x="153" width="77" height="40" as="geometry">
            <mxRectangle width="77" height="40" as="alternateBounds" />
          </mxGeometry>
        </mxCell>
        <mxCell id="4YoetbbLr5SF6jc-DBML-40" value="New" style="rounded=1;fillColor=#0057D8;strokeColor=none;html=1;whiteSpace=wrap;fontColor=#ffffff;align=center;verticalAlign=middle;fontStyle=0;fontSize=12;sketch=0;" vertex="1" parent="1">
          <mxGeometry x="512.5" y="1025" width="86" height="33" as="geometry" />
        </mxCell>
        <mxCell id="4YoetbbLr5SF6jc-DBML-41" value="Delete" style="rounded=1;fillColor=#a20025;strokeColor=#6F0000;html=1;whiteSpace=wrap;fontColor=#ffffff;align=center;verticalAlign=middle;fontStyle=0;fontSize=12;sketch=0;" vertex="1" parent="1">
          <mxGeometry x="651.5" y="1025" width="86" height="33" as="geometry" />
        </mxCell>
        <mxCell id="4YoetbbLr5SF6jc-DBML-42" value="" style="shape=image;verticalLabelPosition=bottom;labelBackgroundColor=default;verticalAlign=top;aspect=fixed;imageAspect=0;image=https://openmoji.org/data/color/svg/1F44E.svg;imageBackground=#FF3333;" vertex="1" parent="1">
          <mxGeometry x="607.5" y="905" width="30" height="30" as="geometry" />
        </mxCell>
        <mxCell id="4YoetbbLr5SF6jc-DBML-43" value="" style="shape=image;verticalLabelPosition=bottom;labelBackgroundColor=default;verticalAlign=top;aspect=fixed;imageAspect=0;image=https://openmoji.org/data/color/svg/1F44E.svg;imageBackground=#FF3333;" vertex="1" parent="1">
          <mxGeometry x="717.5" y="1045" width="30" height="30" as="geometry" />
        </mxCell>
        <mxCell id="4YoetbbLr5SF6jc-DBML-44" value="" style="shape=image;verticalLabelPosition=bottom;labelBackgroundColor=default;verticalAlign=top;aspect=fixed;imageAspect=0;image=https://openmoji.org/data/color/svg/1F44D.svg;imageBackground=#66FF66;border-radius: 10px," vertex="1" parent="1">
          <mxGeometry x="607.5" y="760" width="30" height="30" as="geometry" />
        </mxCell>
        <mxCell id="4YoetbbLr5SF6jc-DBML-45" value="" style="shape=image;verticalLabelPosition=bottom;labelBackgroundColor=default;verticalAlign=top;aspect=fixed;imageAspect=0;image=https://openmoji.org/data/color/svg/1F44D.svg;imageBackground=#66FF66;" vertex="1" parent="1">
          <mxGeometry x="577.5" y="1045" width="30" height="30" as="geometry" />
        </mxCell>
        <mxCell id="4YoetbbLr5SF6jc-DBML-47" style="edgeStyle=orthogonalEdgeStyle;rounded=0;orthogonalLoop=1;jettySize=auto;html=1;entryX=0.5;entryY=0;entryDx=0;entryDy=0;strokeWidth=4;" edge="1" parent="1" source="4YoetbbLr5SF6jc-DBML-12" target="4YoetbbLr5SF6jc-DBML-8">
          <mxGeometry relative="1" as="geometry" />
        </mxCell>
        <mxCell id="4YoetbbLr5SF6jc-DBML-50" value="" style="group" vertex="1" connectable="0" parent="1">
          <mxGeometry x="670" y="53" width="120.5" height="182" as="geometry" />
        </mxCell>
        <mxCell id="4YoetbbLr5SF6jc-DBML-49" value="" style="shape=image;verticalLabelPosition=bottom;labelBackgroundColor=default;verticalAlign=top;aspect=fixed;imageAspect=0;image=https://openmoji.org/data/color/svg/1F978.svg;" vertex="1" parent="4YoetbbLr5SF6jc-DBML-50">
          <mxGeometry width="120" height="120" as="geometry" />
        </mxCell>
        <mxCell id="4YoetbbLr5SF6jc-DBML-48" value="" style="shape=image;verticalLabelPosition=bottom;labelBackgroundColor=default;verticalAlign=top;aspect=fixed;imageAspect=0;image=https://openmoji.org/data/color/svg/1F5D1.svg;" vertex="1" parent="4YoetbbLr5SF6jc-DBML-50">
          <mxGeometry x="0.5" y="62" width="120" height="120" as="geometry" />
        </mxCell>
        <mxCell id="4YoetbbLr5SF6jc-DBML-51" style="edgeStyle=orthogonalEdgeStyle;rounded=0;orthogonalLoop=1;jettySize=auto;html=1;entryX=0;entryY=0.25;entryDx=0;entryDy=0;strokeWidth=4;" edge="1" parent="1" source="4YoetbbLr5SF6jc-DBML-12" target="4YoetbbLr5SF6jc-DBML-48">
          <mxGeometry relative="1" as="geometry" />
        </mxCell>
        <mxCell id="4YoetbbLr5SF6jc-DBML-52" style="edgeStyle=orthogonalEdgeStyle;rounded=0;orthogonalLoop=1;jettySize=auto;html=1;entryX=1;entryY=0.5;entryDx=0;entryDy=0;strokeWidth=4;exitX=0.25;exitY=1;exitDx=0;exitDy=0;" edge="1" parent="1" source="4YoetbbLr5SF6jc-DBML-3" target="4YoetbbLr5SF6jc-DBML-15">
          <mxGeometry relative="1" as="geometry">
            <mxPoint x="160" y="495" as="sourcePoint" />
            <mxPoint x="160" y="565" as="targetPoint" />
          </mxGeometry>
        </mxCell>
        <mxCell id="4YoetbbLr5SF6jc-DBML-53" style="edgeStyle=orthogonalEdgeStyle;rounded=0;orthogonalLoop=1;jettySize=auto;html=1;entryX=0;entryY=0.5;entryDx=0;entryDy=0;strokeWidth=4;exitX=0.75;exitY=1;exitDx=0;exitDy=0;" edge="1" parent="1" source="4YoetbbLr5SF6jc-DBML-3" target="4YoetbbLr5SF6jc-DBML-16">
          <mxGeometry relative="1" as="geometry">
            <mxPoint x="395" y="645" as="sourcePoint" />
            <mxPoint x="615" y="610" as="targetPoint" />
          </mxGeometry>
        </mxCell>
        <mxCell id="4YoetbbLr5SF6jc-DBML-56" value="/xxx/yyy" style="shape=note;whiteSpace=wrap;html=1;backgroundOutline=1;darkOpacity=0.05;" vertex="1" parent="1">
          <mxGeometry x="240" y="785" width="80" height="100" as="geometry" />
        </mxCell>
        <mxCell id="4YoetbbLr5SF6jc-DBML-57" value="/xxx/yyy" style="shape=note;whiteSpace=wrap;html=1;backgroundOutline=1;darkOpacity=0.05;" vertex="1" parent="1">
          <mxGeometry x="250" y="795" width="80" height="100" as="geometry" />
        </mxCell>
        <mxCell id="4YoetbbLr5SF6jc-DBML-58" value="/xxx/yyy" style="shape=note;whiteSpace=wrap;html=1;backgroundOutline=1;darkOpacity=0.05;" vertex="1" parent="1">
          <mxGeometry x="260" y="805" width="80" height="100" as="geometry" />
        </mxCell>
        <mxCell id="4YoetbbLr5SF6jc-DBML-59" value="/xxx/yyy" style="shape=note;whiteSpace=wrap;html=1;backgroundOutline=1;darkOpacity=0.05;" vertex="1" parent="1">
          <mxGeometry x="270" y="815" width="80" height="100" as="geometry" />
        </mxCell>
        <mxCell id="4YoetbbLr5SF6jc-DBML-62" style="edgeStyle=orthogonalEdgeStyle;rounded=0;orthogonalLoop=1;jettySize=auto;html=1;entryX=0.5;entryY=0;entryDx=0;entryDy=0;strokeWidth=4;exitX=0.5;exitY=1;exitDx=0;exitDy=0;" edge="1" parent="1" source="4YoetbbLr5SF6jc-DBML-8" target="4YoetbbLr5SF6jc-DBML-61">
          <mxGeometry relative="1" as="geometry">
            <mxPoint x="540" y="440" as="sourcePoint" />
            <mxPoint x="435" y="310" as="targetPoint" />
          </mxGeometry>
        </mxCell>
      </root>
    </mxGraphModel>
  </diagram>
</mxfile>
